<?xml version="1.0" encoding="UTF-8" standalone="no"?>
<svg viewBox="0 0 316 94" version="1.1" xmlns="http://www.w3.org/2000/svg" xmlns:xlink="http://www.w3.org/1999/xlink">
  <g transform="translate(15.000000, 10.000000)">
    <path d="M9.1805,43.1638 C-0.6655,36.1598 -0.3375,28.8808 8.0845,22.5978 C8.9305,21.9668 9.8145,21.3828 10.7325,20.8338 C13.026,19.4571 15.51,18.3241 18.014,17.3591 C21.75,15.9221 35.411,12.3101 40.506,10.8201 C50.934,7.7771 61.278,5.3061 61.747,5.1991 C62.086,5.1211 63.62,4.7811 64.327,4.6311 C64.4598,4.6032 64.5588,4.5862 64.6198,4.5722 C70.5098,3.5072 77.1778,4.4572 80.3248,8.6422 C82.6977545,11.8041393 83.2657782,15.3840626 82.1158662,19.6459546 C82.02,19.9861 81.92,20.3341 81.803,20.6851 C81.303,22.3121 80.946,23.8471 80.973,25.1831 C81.053,29.2071 82.997,32.6701 85.061,36.1951 C85.293,36.5901 85.516,36.9921 85.731,37.3941 C86.2058435,38.2932953 86.6198154,39.1992488 86.9128,40.1282 C87.3128,41.4022 87.4968,42.7102 87.3128,44.0852 C86.1298,52.9842 78.3638,55.4592 69.2488,55.4062 C68.2252031,55.4022016 67.1806228,55.3612323 66.1310401,55.2942791 C65.321,55.2461 64.508,55.1851 63.69,55.1051 C55.495,54.3181 46.948,52.1681 41.696,51.3141 C36.178,50.4161 27.823,49.6791 21.028,48.1641 C19.594,47.8411 18.252,47.4701 17.034,47.0471 C14.2585,46.0858 11.1055,44.5348 9.1805,43.1638 L9.1805,43.1638 Z" id="Shape" fill="#E60000"></path>
    <path d="M82.1159766,19.646183 C82.5179474,20.0821515 82.8909212,20.4881233 83.2249,20.8551 C86.8889,24.8261 88.8699,29.3221 87.4009,33.9451 C87.1239,34.8141 86.3829,36.0701 85.9519,36.9531 C85.8779161,37.0990682 85.8049318,37.246036 85.7309483,37.3940034 C85.161,38.4961 84.487,39.6051 83.719,40.6991 C79.823,46.2441 73.797,51.1131 67.864,54.4801 C67.317,54.7911 66.733,55.0521 66.129,55.2951 C66.1285873,55.295075 66.1281745,55.2950499 66.1277617,55.2950249 C65.6244088,55.4987095 65.1090896,55.6874426 64.5828,55.8672 C56.8348,58.4902 46.2618,58.5092 37.6778,57.3612 C30.5238,56.4062 25.1158,53.5482 20.6198,50.2382 C19.7721063,49.6114265 18.2948676,48.2511831 17.0351654,47.0475047 C17.0347769,47.0473698 17.0343885,47.0472349 17.034,47.0471 C16.26,46.3041 15.571,45.6211 15.165,45.2091 C8.68,38.5721 7.155,30.6331 9.606,23.4331 C9.918,22.5171 10.295,21.6581 10.733,20.8341 C13.744482,15.151987 19.6154074,11.5070431 26.5453,7.8361 C34.9453,3.3831 42.8243,-0.3689 53.3733,1.0801 C57.7443,1.6831 61.2973,2.9331 64.3263,4.6311 C64.3247401,4.6314309 64.323194,4.6318087 64.3216615,4.6322329 C64.3234462,4.6318541 64.3252257,4.6314764 64.327,4.6311 C64.729,4.8551 65.129,5.0911 65.514,5.3321 C68.815,7.2951 72.627,10.2111 75.739,13.1091 C78.096,15.3081 80.391,17.7711 82.116,19.6461 L82.1159766,19.646183 L82.1159766,19.646183 Z" id="Shape" fill="#FFBF00"></path>
    <path d="M85.061,36.1951 C82.997,32.6701 81.053,29.2071 80.973,25.1831 C80.946,23.8471 81.303,22.3121 81.803,20.6851 C81.92,20.3341 82.02,19.9861 82.116,19.6461 C80.391,17.7711 78.096,15.3081 75.739,13.1091 C72.627,10.2111 68.815,7.2951 65.514,5.3321 C65.129,5.0911 64.729,4.8551 64.327,4.6311 C63.62,4.7811 62.086,5.1211 61.747,5.1991 C61.278,5.3061 50.934,7.7771 40.506,10.8201 C35.411,12.3101 21.75,15.9221 18.014,17.3591 C15.51,18.3241 13.026,19.4571 10.733,20.8341 C10.295,21.6581 9.918,22.5171 9.606,23.4331 C7.155,30.6331 8.68,38.5721 15.165,45.2091 C15.571,45.6211 16.26,46.3041 17.034,47.0471 C18.252,47.4701 19.594,47.8411 21.028,48.1641 C27.823,49.6791 36.178,50.4161 41.696,51.3141 C46.948,52.1681 55.495,54.3181 63.69,55.1051 C64.508,55.1851 65.321,55.2461 66.129,55.2951 C66.733,55.0521 67.317,54.7911 67.864,54.4801 C73.797,51.1131 79.823,46.2441 83.719,40.6991 C84.487,39.6051 85.161,38.4961 85.731,37.3941 C85.516,36.9921 85.293,36.5901 85.061,36.1951" id="Shape" fill="#FF5C00"></path>
    <path d="M89.5845,66.7635 L87.7015,66.7635 L87.7015,70.7015 C87.7015,71.5425 88.1725,71.9475 88.7855,71.9475 C89.1975,71.9475 89.3955,71.9155 89.6975,71.8025 L89.6975,72.9315 C89.3955,73.0175 88.9825,73.0795 88.5575,73.0795 C87.1745,73.0795 86.3185,72.4275 86.3185,70.9725 L86.3185,66.7635 L84.6785,66.7635 L84.6785,65.6405 L86.3185,65.6405 L86.3185,63.8165 L87.7015,63.5295 L87.7015,65.6405 L89.5845,65.6405 L89.5845,66.7635 L89.5845,66.7635 Z" id="Shape" fill="#DF3327"></path>
    <path d="M77.7056,65.6404 L79.0006,65.6404 L79.0006,66.7964 L79.0296,66.7964 C79.4286,65.9684 80.3986,65.5014 81.4106,65.5014 C83.3656,65.5014 84.1356,66.7424 84.1356,68.7124 L84.1356,72.9114 L82.7256,72.9114 L82.7256,69.1484 C82.7256,67.4884 82.3876,66.7244 81.2546,66.6564 C79.7266,66.6564 79.0906,67.7774 79.0906,69.5484 L79.0906,72.9114 L77.7056,72.9114 L77.7056,65.6404 L77.7056,65.6404 Z" id="Shape" fill="#DF3327"></path>
    <path d="M71.4087,68.5779 C71.5067,67.6369 72.1317,66.5489 73.4417,66.5489 C74.5997,66.5489 75.2527,67.4649 75.2527,68.5779 L71.4087,68.5779 L71.4087,68.5779 L71.4087,68.5779 Z M76.1217,71.2709 C75.7977,71.5409 74.7717,71.9959 73.8877,71.9959 C72.6157,71.9959 71.4087,71.0119 71.4087,69.5739 L76.6587,69.5699 C76.6787,69.4279 76.6787,69.2869 76.6727,69.1479 C76.5747,67.0269 75.7487,65.4689 73.4727,65.4689 C71.4207,65.4689 69.9637,66.9959 69.9637,69.1479 C69.9637,71.5139 71.2487,73.0799 73.8307,73.0799 C75.0257,73.0799 75.6117,72.7969 76.1217,72.6109 L76.1217,71.2709 L76.1217,71.2709 Z" id="Shape" fill="#DF3327"></path>
    <path d="M58.4204,65.6424 L59.6644,65.6424 L59.6644,66.7384 L59.6934,66.7384 C60.2034,65.9024 60.9244,65.5194 61.9844,65.5194 C62.8184,65.5194 63.6524,65.9474 64.0354,66.9214 C64.5314,65.8884 65.6214,65.5194 66.2744,65.5194 C68.1114,65.5194 68.7754,66.7064 68.7754,68.2834 L68.7754,72.9084 L67.4204,72.9084 L67.4204,68.6054 C67.4204,67.7104 67.2344,66.7634 66.1584,66.7634 C64.8014,66.7634 64.4304,67.9274 64.4304,69.2714 L64.4304,72.9084 L62.9044,72.9084 L62.9044,68.6054 C62.9044,67.7104 62.7214,66.7634 61.6454,66.7634 C60.2874,66.7634 59.9164,67.9274 59.9164,69.2714 L59.9164,72.9084 L58.4204,72.9084 L58.4204,65.6424 L58.4204,65.6424 Z" id="Shape" fill="#DF3327"></path>
    <path d="M50.4868,65.6404 L51.7838,65.6404 L51.7838,66.7964 L51.8128,66.7964 C52.2118,65.9684 53.1818,65.5014 54.1938,65.5014 C56.1488,65.5014 56.9188,66.7424 56.9188,68.7124 L56.9188,72.9114 L55.5078,72.9114 L55.5078,69.1484 C55.5078,67.4884 55.1708,66.7244 54.0398,66.6564 C52.5118,66.6564 51.8738,67.7774 51.8738,69.5484 L51.8738,72.9114 L50.4868,72.9114 L50.4868,65.6404 L50.4868,65.6404 Z" id="Shape" fill="#DF3327"></path>
    <path d="M47.135,72.912 L48.514,72.912 L48.514,65.641 L47.135,65.641 L47.135,72.912 L47.135,72.912 Z M47.047,64.014 L48.598,64.014 L48.598,62.502 L47.047,62.502 L47.047,64.014 L47.047,64.014 Z" id="Shape" fill="#DF3327"></path>
    <path d="M43.9419,70.0994 C43.9419,71.1714 43.2489,71.9954 41.9319,71.9954 C41.3249,71.9954 40.4789,71.5814 40.4789,70.8184 C40.4789,69.5484 42.3719,69.2714 43.0919,69.2714 C43.3759,69.2714 43.6609,69.2984 43.9419,69.2984 L43.9419,70.0994 L43.9419,70.0994 L43.9419,70.0994 Z M39.8719,67.1894 C40.4089,66.7674 41.3559,66.5364 42.1039,66.5364 C43.4319,66.5364 43.9419,67.0684 43.9419,68.3124 C43.4149,68.2854 43.0489,68.3124 42.5259,68.3124 C41.1549,68.3124 39.0359,68.9564 39.0359,70.7634 C39.0359,72.3314 40.2659,73.0684 41.8209,73.0684 C43.0379,73.0684 43.7429,72.4884 44.0529,72.0464 L44.0829,72.0464 L44.0829,72.9004 L45.2989,72.9004 C45.2699,72.6854 45.2719,72.3044 45.2719,71.4844 L45.2719,68.5014 C45.2719,66.5364 44.3809,65.4604 42.3149,65.4604 C41.6919,65.4604 40.4599,65.6634 39.8289,66.0374 L39.8719,67.1894 L39.8719,67.1894 Z" id="Shape" fill="#DF3327"></path>
    <path d="M37.9126,66.7635 L36.0296,66.7635 L36.0296,70.7015 C36.0296,71.5425 36.5006,71.9475 37.1136,71.9475 C37.5276,71.9475 37.7266,71.9155 38.0256,71.8025 L38.0256,72.9315 C37.7266,73.0175 37.3126,73.0795 36.8876,73.0795 C35.5046,73.0795 34.6486,72.4275 34.6486,70.9725 L34.6486,66.7635 L33.0086,66.7635 L33.0086,65.6405 L34.6486,65.6405 L34.6486,63.8165 L36.0296,63.5295 L36.0296,65.6405 L37.9126,65.6405 L37.9126,66.7635 L37.9126,66.7635 Z" id="Shape" fill="#DF3327"></path>
    <path d="M27.9536,65.6404 L29.2096,65.6404 L29.2096,66.7814 L29.2366,66.7814 C29.5826,66.0484 30.4206,65.5094 31.1336,65.4884 C31.5316,65.4764 31.7326,65.4924 32.0156,65.5484 L32.0156,66.7244 C31.7506,66.6584 31.4106,66.6484 31.1836,66.6694 C29.9206,66.8024 29.3286,67.8414 29.3286,69.6654 L29.3286,72.9114 L27.9536,72.9114 L27.9536,65.6404 L27.9536,65.6404 Z" id="Shape" fill="#DF3327"></path>
    <path d="M21.4888,68.5779 C21.5888,67.6369 22.2158,66.5489 23.5238,66.5489 C24.6798,66.5489 25.3348,67.4649 25.3348,68.5779 L21.4888,68.5779 L21.4888,68.5779 L21.4888,68.5779 Z M26.2038,71.2709 C25.8798,71.5409 24.8518,71.9959 23.9688,71.9959 C22.6998,71.9959 21.4888,71.0119 21.4888,69.5739 L26.7388,69.5699 C26.7598,69.4279 26.7598,69.2869 26.7548,69.1479 C26.6548,67.0269 25.8288,65.4689 23.5548,65.4689 C21.5028,65.4689 20.0438,66.9959 20.0438,69.1479 C20.0438,71.5139 21.3308,73.0799 23.9128,73.0799 C25.1078,73.0799 25.6918,72.7969 26.2038,72.6109 L26.2038,71.2709 L26.2038,71.2709 Z" id="Shape" fill="#DF3327"></path>
    <path d="M19.2388,66.7635 L17.3558,66.7635 L17.3558,70.7015 C17.3558,71.5425 17.8288,71.9475 18.4398,71.9475 C18.8538,71.9475 19.0518,71.9155 19.3518,71.8025 L19.3518,72.9315 C19.0518,73.0175 18.6388,73.0795 18.2138,73.0795 C16.8308,73.0795 15.9748,72.4275 15.9748,70.9725 L15.9748,66.7635 L14.3328,66.7635 L14.3328,65.6405 L15.9748,65.6405 L15.9748,63.8165 L17.3558,63.5295 L17.3558,65.6405 L19.2388,65.6405 L19.2388,66.7635 L19.2388,66.7635 Z" id="Shape" fill="#DF3327"></path>
    <path d="M7.1899,65.6404 L8.4869,65.6404 L8.4869,66.7964 L8.5179,66.7964 C8.9169,65.9684 9.8849,65.5014 10.8989,65.5014 C12.8539,65.5014 13.6239,66.7424 13.6239,68.7124 L13.6239,72.9114 L12.2129,72.9114 L12.2129,69.1484 C12.2129,67.4884 11.8759,66.7244 10.7429,66.6564 C9.2169,66.6564 8.5789,67.7774 8.5789,69.5484 L8.5789,72.9114 L7.1899,72.9114 L7.1899,65.6404 L7.1899,65.6404 Z" id="Shape" fill="#DF3327"></path>
    <polygon id="Shape" fill="#DF3327" points="0.3442 62.9568 5.8192 62.9568 5.8192 64.2168 1.7702 64.2168 1.7702 67.0588 5.6552 67.0588 5.6552 68.3138 1.7702 68.3138 1.7702 71.6558 5.8192 71.6558 5.8192 72.9118 0.3442 72.9118"></polygon>
    <path d="M66.0649,39.072 C66.0649,42.627 68.0159,44.855 71.6699,44.855 C75.3169,44.855 77.2699,42.627 77.2699,39.072 C77.2699,35.49 75.3499,33.289 71.6699,33.289 C67.9849,33.289 66.0649,35.49 66.0649,39.072 M69.1409,39.072 C69.1409,37.135 69.8599,35.502 71.6699,35.502 C73.4789,35.502 74.1999,37.135 74.1999,39.072 C74.1999,40.912 73.4789,42.646 71.6699,42.646 C69.8599,42.646 69.1409,40.912 69.1409,39.072" id="Shape" fill="#FFFFFF"></path>
    <path d="M65.6099,44.4041 C64.7579,44.6091 63.8149,44.8551 62.2939,44.8551 C59.3109,44.8551 55.8699,43.3471 55.8699,39.1191 C55.8699,35.2321 58.5919,33.2891 62.2719,33.2891 C63.4129,33.2891 64.5159,33.5491 65.5889,33.8691 L65.3459,36.2831 C64.3909,35.7611 63.4599,35.5021 62.4359,35.5021 C60.3249,35.5021 58.9439,37.0411 58.9439,39.1191 C58.9439,41.3141 60.4989,42.6461 62.6759,42.6461 C63.6509,42.6461 64.6429,42.3841 65.4599,42.0681 L65.6099,44.4041 L65.6099,44.4041 Z" id="Shape" fill="#FFFFFF"></path>
    <polygon id="Shape" fill="#FFFFFF" points="41.6528 33.4842 46.3478 33.4842 48.2838 40.9122 48.3148 40.9122 50.3638 33.4842 54.8758 33.4842 54.8758 44.6562 51.9618 44.6562 52.0118 36.0802 51.9788 36.0802 49.5628 44.6562 46.8268 44.6562 44.5358 36.0802 44.5048 36.0802 44.5668 44.6562 41.6528 44.6562"></polygon>
    <path d="M28.8579,44.656 L31.8869,44.656 L32.7599,42.277 L36.9579,42.277 L37.7879,44.656 L41.0589,44.656 L36.7489,33.484 L33.0999,33.484 L28.8579,44.656 L28.8579,44.656 Z M36.2559,40.16 L33.4539,40.16 L34.8929,35.789 L34.9219,35.789 L36.2559,40.16 L36.2559,40.16 Z" id="Shape" fill="#FFFFFF"></path>
    <polygon id="Shape" fill="#FFFFFF" points="17.9849 33.4842 21.7759 33.4842 25.5529 41.0742 25.5889 41.0742 25.5379 33.4842 28.2599 33.4842 28.2599 44.6562 24.5589 44.6562 20.6589 37.0212 20.6279 37.0212 20.7229 44.6562 17.9849 44.6562"></polygon>
    <polygon id="Shape" fill="#FFFFFF" points="73.702 31.053 76.647 31.053 76.647 19.877 73.702 19.877"></polygon>
    <path d="M61.1763,31.0525 L64.1703,31.0525 L65.0433,28.6695 L69.1923,28.6695 L70.0163,31.0525 L73.2523,31.0525 L68.9903,19.8765 L65.3733,19.8765 L61.1763,31.0525 L61.1763,31.0525 Z M68.5003,26.5565 L65.7213,26.5565 L67.1533,22.1875 L67.1823,22.1875 L68.5003,26.5565 L68.5003,26.5565 Z" id="Shape" fill="#FFFFFF"></path>
    <path d="M51.2739,31.0525 L55.2989,31.0525 C59.0669,31.0525 61.8399,29.5935 61.8399,25.4195 C61.8399,21.0935 59.1489,19.8765 55.2989,19.8765 L51.2739,19.8765 L51.2739,31.0525 L51.2739,31.0525 Z M54.2189,22.0895 L55.3619,22.0895 C57.5159,22.0895 58.7989,23.2405 58.7989,25.4665 C58.7989,27.6915 57.5629,28.8475 55.3619,28.8475 L54.2189,28.8475 L54.2189,22.0895 L54.2189,22.0895 Z" id="Shape" fill="#FFFFFF"></path>
    <polygon id="Shape" fill="#FFFFFF" points="39.4184 19.8767 43.1784 19.8767 46.9184 27.4687 46.9474 27.4687 46.9044 19.8767 49.5964 19.8767 49.5964 31.0527 45.9364 31.0527 42.0644 23.4157 42.0334 23.4157 42.1274 31.0527 39.4184 31.0527"></polygon>
    <path d="M26.7661,31.0525 L29.7621,31.0525 L30.6371,28.6695 L34.7841,28.6695 L35.6061,31.0525 L38.8381,31.0525 L34.5771,19.8765 L30.9611,19.8765 L26.7661,31.0525 L26.7661,31.0525 Z M34.0861,26.5565 L31.3131,26.5565 L32.7411,22.1875 L32.7701,22.1875 L34.0861,26.5565 L34.0861,26.5565 Z" id="Shape" fill="#FFFFFF"></path>
    <path d="M20.9282,21.99 L21.7832,21.99 C22.7722,21.99 23.7192,22.09 23.7192,23.117 C23.7192,24.056 22.7192,24.297 21.7542,24.297 L20.9282,24.297 L20.9282,21.99 L20.9282,21.99 Z M17.9852,31.053 L22.6452,31.053 C24.6232,31.053 26.9492,30.488 26.9492,27.82 C26.9492,26.459 26.1902,25.658 24.7172,25.357 L24.7172,25.32 C25.9512,24.904 26.6642,24.121 26.6642,22.711 C26.6642,20.789 25.1272,19.877 23.0732,19.877 L17.9852,19.877 L17.9852,31.053 L17.9852,31.053 Z M20.9282,26.314 L21.8342,26.314 C22.8482,26.314 24.0022,26.426 24.0022,27.64 C24.0022,28.781 22.8832,28.939 21.8012,28.939 L20.9282,28.939 L20.9282,26.314 L20.9282,26.314 Z" id="Shape" fill="#FFFFFF"></path>
    <path d="M284.1255,15.9041 C284.0665,15.7481 283.9655,15.5541 283.7585,15.2731 C283.7065,14.2991 283.7615,13.7971 283.8895,13.1681 C283.8555,12.5931 283.6485,11.9451 283.3255,11.0371 L102.3915,26.8691 L102.1365,26.9801 C102.1365,27.0411 101.6665,27.4921 101.6665,27.4921 L102.0375,28.5861 C102.1635,28.6381 102.5105,29.3001 102.6275,29.3491 C102.7545,30.3341 102.6865,30.1721 102.8115,31.1521 C103.1725,31.4741 103.4395,31.8611 103.6935,32.1251 C103.5155,33.0151 103.7005,32.7321 103.2665,33.0351 C103.1405,33.5971 102.7085,34.5371 102.5285,35.0861 L102.7305,35.5351 C103.0045,35.5411 102.9615,35.6791 103.0535,35.6741 C103.0565,35.7361 103.0975,35.9471 103.0975,35.9471 C103.3575,36.1811 103.4765,36.3041 103.7165,36.7671 L103.7455,37.5781 C103.8745,37.8831 104.0025,38.0931 104.0995,38.2751 C104.3785,38.4251 104.5925,38.5091 104.9245,38.7831 C104.9315,38.9041 104.9375,39.0291 104.9435,39.1541 C105.0695,39.2031 105.2865,39.2461 105.4125,39.2991 C105.4185,39.4221 105.4255,39.5471 105.4315,39.6701 C105.4315,39.6701 105.7855,40.2931 105.7945,40.4801 C105.9245,40.5781 105.9695,40.7811 106.0685,40.8651 C105.9695,40.9721 105.7975,41.1091 105.7915,41.1311 C105.8025,41.3831 105.7855,41.5131 105.7975,41.7591 C105.7975,41.7591 106.1455,42.1561 106.2195,42.3121 C106.1545,42.4901 105.9985,42.6211 105.8885,42.9921 C105.8885,42.9921 106.0845,43.2221 106.0925,43.3431 L106.0995,43.5291 C106.2095,43.8041 106.2725,43.7401 106.4925,43.8711 C106.2965,44.1991 106.2875,43.9721 106.0475,44.3261 C106.1335,44.4371 106.1545,44.5131 106.1885,44.5451 C106.2465,44.6011 106.3155,44.6701 106.4885,44.8201 C106.3515,45.3901 106.1585,45.2461 106.1335,45.9081 C106.2935,45.9961 106.5185,46.1621 106.7115,46.2401 C106.7315,46.6111 106.7635,46.8321 106.7615,47.2091 C106.7615,47.2091 107.0105,47.6831 106.9495,47.9351 C106.9495,47.9351 106.8635,48.2971 106.9255,48.6031 C106.9255,48.6031 106.7635,48.8731 106.6595,49.3691 C106.6595,49.3691 107.1625,49.6851 107.3205,49.9591 C107.3885,50.5841 107.3205,50.5601 107.8765,50.6561 C107.9345,51.6971 107.8555,51.5291 107.4865,52.4741 C107.4895,52.6481 107.5845,52.9041 107.5845,53.0781 L107.4145,53.4961 L283.5485,38.0881 C283.5265,38.0251 283.9365,37.7731 283.9365,37.7731 C283.9175,37.7161 283.9955,37.4901 283.9615,37.3021 C284.0935,37.1811 284.2665,36.9511 284.3305,36.8941 C284.3125,36.8041 284.2255,36.7751 284.1705,36.6211 C284.1855,36.4081 284.0115,36.1561 284.0115,36.1561 C284.0615,35.8101 284.2505,35.6111 284.1565,35.1751 C284.2215,34.8771 284.2555,34.7111 284.2905,34.2181 C283.9755,34.0951 283.7165,33.8201 283.3935,33.7361 C283.3505,33.6111 283.2655,33.5061 283.2225,33.3841 C283.3675,33.2461 283.5105,33.1031 283.6545,32.9701 C283.6335,32.9061 283.6105,32.8451 283.5885,32.7831 C283.5885,32.7831 283.1235,32.5701 283.0795,32.4531 C283.4295,32.1701 283.6475,31.3281 283.6255,31.2691 C284.1585,30.8301 284.0565,30.7671 284.4235,30.2711 C284.3975,29.8961 284.0875,29.2971 284.1045,29.0351 L284.2665,28.7501 C284.2275,28.6291 284.1815,28.5081 284.1375,28.3831 C284.2125,28.3301 284.4955,28.1331 284.6515,28.0251 L284.6535,27.8001 C284.5105,27.6661 284.2745,27.4701 284.3035,27.2341 L284.4835,27.1291 C284.6115,26.7541 284.7735,26.7611 284.7265,26.2501 C285.0125,26.1501 285.2295,25.9311 285.4005,25.9061 L285.6265,25.5561 C285.6165,25.3611 285.6485,25.2811 285.6245,25.1521 C285.5555,25.0171 285.5405,24.7181 285.4735,24.5841 C285.5885,24.3831 285.7125,24.1971 285.7125,24.1971 C285.7185,24.0741 285.7365,23.9651 285.7445,23.6991 L285.9415,23.3791 L285.9345,22.5971 C285.8965,22.4041 285.4715,21.4881 285.3335,21.2931 L285.0625,20.2521 L285.2365,20.0561 C285.1935,19.9311 285.1335,19.6331 285.0905,19.5111 C285.1935,19.4371 285.1015,19.2051 285.2045,19.1331 C285.0605,18.7811 284.5955,18.9291 284.5635,18.4311 L284.9305,17.8301 C284.7895,17.5501 284.4185,17.0111 284.3865,16.9591 L284.1255,15.9041 L284.1255,15.9041 Z" id="Shape" fill="#FF5C00"></path>
    <path d="M276.23,23.7342 C275.934,23.2072 275.386,22.8452 274.608,22.9122 C273.831,22.9802 273.352,23.4332 273.153,24.0042 C273.041,24.3532 273.013,24.6032 273.029,25.0112 L276.529,24.7052 C276.477,24.3002 276.401,24.0562 276.23,23.7342 L276.23,23.7342 L276.23,23.7342 Z M273.168,26.5862 C273.27,27.7692 274.07,28.5722 275.36,28.4592 C276.37,28.3732 276.84,28.0452 277.373,27.4122 L278.888,28.6502 C278.033,29.6682 277.175,30.2612 275.513,30.4062 C273.338,30.5972 271.167,29.7892 270.839,26.0582 C270.576,23.0522 272.055,21.2132 274.441,21.0022 C277.005,20.7792 278.619,22.5252 278.84,25.0542 L278.93,26.0802 L273.168,26.5862 L273.168,26.5862 Z" id="Shape" fill="#FFFFFF"></path>
    <path d="M267.5522,30.9959 L267.0662,25.4259 C266.9562,24.1719 266.1212,23.8159 265.3992,23.8809 C264.6722,23.9429 263.8962,24.4369 264.0062,25.6929 L264.4922,31.2639 L262.1932,31.4669 L261.3872,22.2519 L263.6322,22.0549 L263.7072,22.9039 C264.2532,22.2149 265.0752,21.8239 265.9252,21.7479 C266.8442,21.6679 267.6122,21.9039 268.1702,22.3729 C268.9782,23.0509 269.2492,23.8979 269.3352,24.9059 L269.8502,30.7969 L267.5522,30.9959 L267.5522,30.9959 Z" id="Shape" fill="#FFFFFF"></path>
    <path d="M257.2104,25.0037 C256.9194,24.7637 256.5534,24.6537 256.0944,24.6927 C255.6344,24.7337 255.3114,24.9017 255.0674,25.1907 C254.6334,25.7127 254.6484,26.5117 254.7324,27.4667 C254.8164,28.4197 254.9404,29.2307 255.4604,29.6677 C255.7504,29.9077 256.0974,30.0197 256.5574,29.9807 C257.0154,29.9397 257.3584,29.7677 257.6014,29.4807 C258.0364,28.9587 258.0204,28.1407 257.9364,27.1877 C257.8524,26.2307 257.7294,25.4407 257.2104,25.0037 M259.5044,30.6657 C258.9894,31.3177 258.0994,31.9297 256.7394,32.0487 C255.3764,32.1697 254.4084,31.7187 253.7894,31.1677 C252.8834,30.3727 252.5794,29.3477 252.4344,27.6657 C252.2884,26.0057 252.4074,24.9427 253.1644,24.0057 C253.6764,23.3557 254.5494,22.7437 255.9134,22.6247 C257.2744,22.5057 258.2594,22.9527 258.8774,23.5077 C259.7864,24.3007 260.0894,25.3237 260.2344,26.9837 C260.3814,28.6657 260.2614,29.7287 259.5044,30.6657" id="Shape" fill="#FFFFFF"></path>
    <path d="M248.7466,34.1385 C248.5976,34.6695 248.4176,35.0755 248.1596,35.3845 C247.6756,35.9605 247.0016,36.1975 246.2416,36.2655 L245.3386,36.3435 L245.1566,34.2755 L245.6866,34.2265 C246.3436,34.1715 246.5946,33.9885 246.7666,33.2965 L247.0556,32.1285 L243.1586,23.8455 L245.5816,23.6345 L247.9906,29.1615 L249.3306,23.3085 L251.7536,23.0955 L248.7466,34.1385 L248.7466,34.1385 Z" id="Shape" fill="#FFFFFF"></path>
    <path d="M241.3315,26.5369 C240.9465,26.2129 240.6315,26.0449 240.0645,26.0959 C239.3565,26.1579 238.6275,26.7559 238.7285,27.9219 L239.2135,33.4759 L236.9165,33.6779 L236.1085,24.4649 L238.3555,24.2689 L238.4325,25.1499 C238.8285,24.5819 239.6725,24.0449 240.6635,23.9569 C241.5625,23.8809 242.2195,24.0529 242.9125,24.6349 L241.3315,26.5369 L241.3315,26.5369 Z" id="Shape" fill="#FFFFFF"></path>
    <path d="M232.4028,27.5662 C232.1078,27.0412 231.5588,26.6772 230.7818,26.7462 C230.0038,26.8162 229.5248,27.2652 229.3258,27.8362 C229.2148,28.1852 229.1818,28.4352 229.2008,28.8452 L232.7028,28.5392 C232.6478,28.1322 232.5748,27.8882 232.4028,27.5662 L232.4028,27.5662 L232.4028,27.5662 Z M229.3378,30.4182 C229.4418,31.6032 230.2438,32.4082 231.5338,32.2932 C232.5428,32.2052 233.0128,31.8782 233.5458,31.2442 L235.0608,32.4842 C234.2058,33.5052 233.3478,34.0952 231.6868,34.2422 C229.5108,34.4312 227.3378,33.6252 227.0098,29.8922 C226.7478,26.8842 228.2268,25.0462 230.6138,24.8372 C233.1788,24.6132 234.7928,26.3612 235.0128,28.8902 L235.1028,29.9162 L229.3378,30.4182 L229.3378,30.4182 Z" id="Shape" fill="#FFFFFF"></path>
    <polygon id="Shape" fill="#FFFFFF" points="223.8599 34.8181 222.0539 34.9761 217.8519 26.0601 220.2759 25.8471 222.6489 31.3791 224.0069 25.5211 226.4299 25.3101"></polygon>
    <path d="M215.4106,29.0545 C215.1156,28.5275 214.5666,28.1635 213.7896,28.2325 C213.0116,28.3005 212.5326,28.7515 212.3336,29.3225 C212.2226,29.6715 212.1896,29.9235 212.2076,30.3295 L215.7096,30.0275 C215.6556,29.6205 215.5826,29.3765 215.4106,29.0545 L215.4106,29.0545 L215.4106,29.0545 Z M212.3456,31.9065 C212.4486,33.0895 213.2506,33.8925 214.5416,33.7815 C215.5506,33.6935 216.0186,33.3655 216.5536,32.7325 L218.0686,33.9725 C217.2136,34.9885 216.3556,35.5835 214.6946,35.7265 C212.5186,35.9175 210.3456,35.1095 210.0176,31.3785 C209.7596,28.3725 211.2346,26.5335 213.6216,26.3225 C216.1856,26.0995 217.8006,27.8455 218.0206,30.3745 L218.1106,31.4025 L212.3456,31.9065 L212.3456,31.9065 Z" id="Shape" fill="#FFFFFF"></path>
    <path d="M203.8599,29.8142 C203.4769,29.4922 203.1579,29.3242 202.5909,29.3732 C201.8849,29.4352 201.1529,30.0352 201.2559,31.1992 L201.7419,36.7552 L199.4419,36.9552 L198.6349,27.7422 L200.8809,27.5442 L200.9609,28.4272 C201.3549,27.8612 202.1979,27.3242 203.1899,27.2362 C204.0909,27.1562 204.7499,27.3322 205.4409,27.9122 L203.8599,29.8142 L203.8599,29.8142 Z" id="Shape" fill="#FFFFFF"></path>
    <path d="M194.4556,30.4939 C194.1666,30.2539 193.8016,30.1419 193.3406,30.1829 C192.8826,30.2229 192.5596,30.3939 192.3156,30.6809 C191.8816,31.1989 191.8966,32.0019 191.9806,32.9549 C192.0646,33.9119 192.1876,34.7209 192.7086,35.1559 C192.9956,35.3979 193.3456,35.5119 193.8056,35.4709 C194.2646,35.4309 194.6046,35.2559 194.8486,34.9689 C195.2836,34.4509 195.2656,33.6329 195.1816,32.6759 C195.0986,31.7229 194.9766,30.9299 194.4556,30.4939 M196.7516,36.1579 C196.2386,36.8079 195.3476,37.4219 193.9846,37.5409 C192.6226,37.6579 191.6576,37.2089 191.0396,36.6559 C190.1326,35.8629 189.8286,34.8379 189.6816,33.1579 C189.5356,31.4959 189.6576,30.4329 190.4136,29.4919 C190.9256,28.8439 191.7996,28.2319 193.1616,28.1129 C194.5236,27.9939 195.5066,28.4429 196.1246,28.9939 C197.0326,29.7889 197.3356,30.8119 197.4806,32.4759 C197.6286,34.1559 197.5076,35.2169 196.7516,36.1579" id="Shape" fill="#FFFFFF"></path>
    <path d="M186.9028,30.8006 L187.5338,37.9956 L185.2328,38.1986 L184.6028,30.9996 L183.6498,31.0836 L183.4958,29.3336 L184.4498,29.2496 L184.3488,28.1016 C184.2358,26.7906 184.9338,25.3946 186.8088,25.2306 L188.1178,25.1146 L188.2878,27.0606 L187.3858,27.1406 C186.8368,27.1896 186.6158,27.5096 186.6608,28.0406 L186.7488,29.0466 L188.4488,28.8986 L188.6018,30.6506 L186.9028,30.8006 L186.9028,30.8006 Z" id="Shape" fill="#FFFFFF"></path>
    <path d="M176.7837,38.9373 L176.2947,33.3653 C176.1847,32.1093 175.3527,31.7533 174.6277,31.8183 C173.9017,31.8823 173.1257,32.3783 173.2357,33.6323 L173.7217,39.2053 L171.4247,39.4083 L170.6167,30.1913 L172.8647,29.9963 L172.9377,30.8453 C173.4827,30.1543 174.3047,29.7633 175.1537,29.6873 C176.0737,29.6093 176.8417,29.8433 177.3997,30.3103 C178.2077,30.9883 178.4777,31.8373 178.5657,32.8473 L179.0807,38.7383 L176.7837,38.9373 L176.7837,38.9373 Z" id="Shape" fill="#FFFFFF"></path>
    <path d="M167.2827,39.7713 L167.2067,38.9213 C166.6627,39.6073 165.8407,40.0013 164.9927,40.0783 C164.0737,40.1583 163.3037,39.9213 162.7457,39.4533 C161.9377,38.7733 161.6667,37.9253 161.5787,36.9163 L161.0637,31.0293 L163.3637,30.8243 L163.8497,36.3963 C163.9607,37.6543 164.7937,38.0073 165.5187,37.9453 C166.2437,37.8803 167.0207,37.3863 166.9097,36.1303 L166.4237,30.5583 L168.7217,30.3593 L169.5277,39.5723 L167.2827,39.7713 L167.2827,39.7713 Z" id="Shape" fill="#FFFFFF"></path>
    <path d="M158.4233,33.2908 L159.0543,40.4898 L156.7543,40.6888 L156.1253,33.4918 L155.1703,33.5758 L155.0153,31.8258 L155.9713,31.7418 L155.8713,30.5938 C155.7563,29.2808 156.4543,27.8848 158.3273,27.7228 L159.6383,27.6048 L159.8083,29.5528 L158.9043,29.6308 C158.3583,29.6798 158.1363,29.9998 158.1823,30.5328 L158.2703,31.5388 L159.9673,31.3908 L160.1203,33.1428 L158.4233,33.2908 L158.4233,33.2908 Z" id="Shape" fill="#FFFFFF"></path>
    <path d="M147.9131,34.9568 C147.6181,34.4318 147.0711,34.0698 146.2921,34.1388 C145.5151,34.2068 145.0381,34.6578 144.8381,35.2278 C144.7261,35.5758 144.6941,35.8298 144.7111,36.2378 L148.2131,35.9298 C148.1611,35.5268 148.0851,35.2828 147.9131,34.9568 L147.9131,34.9568 L147.9131,34.9568 Z M144.8501,37.8118 C144.9521,38.9958 145.7541,39.8008 147.0441,39.6868 C148.0531,39.5998 148.5231,39.2728 149.0541,38.6388 L150.5711,39.8748 C149.7161,40.8958 148.8581,41.4858 147.1971,41.6328 C145.0211,41.8218 142.8481,41.0158 142.5201,37.2828 C142.2601,34.2768 143.7371,32.4358 146.1241,32.2278 C148.6871,32.0038 150.3031,33.7518 150.5241,36.2808 L150.6131,37.3068 L144.8501,37.8118 L144.8501,37.8118 Z" id="Shape" fill="#FFFFFF"></path>
    <path d="M140.4629,35.3592 C140.0799,35.0372 139.7609,34.8692 139.1939,34.9202 C138.4879,34.9802 137.7569,35.5802 137.8589,36.7482 L138.3449,42.3002 L136.0439,42.5002 L135.2379,33.2852 L137.4839,33.0892 L137.5639,33.9762 C137.9579,33.4062 138.8009,32.8672 139.7929,32.7832 C140.6939,32.7032 141.3509,32.8792 142.0439,33.4572 L140.4629,35.3592 L140.4629,35.3592 Z" id="Shape" fill="#FFFFFF"></path>
    <path d="M131.0586,36.0427 C130.7716,35.7987 130.4046,35.6877 129.9446,35.7307 C129.4856,35.7697 129.1626,35.9387 128.9186,36.2287 C128.4846,36.7477 128.4996,37.5487 128.5836,38.5037 C128.6666,39.4587 128.7906,40.2657 129.3116,40.7007 C129.5986,40.9427 129.9496,41.0567 130.4086,41.0157 C130.8676,40.9767 131.2086,40.8047 131.4526,40.5137 C131.8876,39.9937 131.8686,39.1777 131.7846,38.2247 C131.7016,37.2677 131.5796,36.4767 131.0586,36.0427 M133.3556,41.7007 C132.8416,42.3537 131.9516,42.9667 130.5876,43.0877 C129.2256,43.2067 128.2606,42.7557 127.6426,42.2027 C126.7356,41.4097 126.4316,40.3847 126.2846,38.7047 C126.1386,37.0427 126.2606,35.9787 127.0166,35.0407 C127.5286,34.3907 128.4026,33.7787 129.7646,33.6597 C131.1256,33.5407 132.1106,33.9877 132.7286,34.5407 C133.6356,35.3357 133.9386,36.3587 134.0846,38.0217 C134.2326,39.7027 134.1106,40.7657 133.3556,41.7007" id="Shape" fill="#FFFFFF"></path>
    <path d="M122.918,43.6502 L122.43,38.0802 C122.319,36.8242 121.486,36.4682 120.762,36.5332 C120.054,36.5912 119.261,37.0912 119.366,38.2952 L119.856,43.9162 L117.56,44.1192 L117.071,38.5462 C116.96,37.2932 116.128,36.9392 115.404,37.0002 C114.679,37.0622 113.902,37.5602 114.013,38.8162 L114.499,44.3862 L112.199,44.5862 L111.394,35.3732 L113.64,35.1752 L113.715,36.0252 C114.262,35.3552 115.081,34.9452 115.931,34.8692 C116.956,34.7812 117.817,35.0802 118.472,35.8222 C119.179,34.9412 119.979,34.5132 121.129,34.4142 C122.049,34.3362 122.906,34.5622 123.464,35.0292 C124.272,35.7072 124.613,36.5522 124.701,37.5602 L125.218,43.4492 L122.918,43.6502 L122.918,43.6502 Z" id="Shape" fill="#FFFFFF"></path>
  </g>
</svg>
